<?xml version="1.0" encoding="UTF-8" standalone="no"?>
<!DOCTYPE svg PUBLIC "-//W3C//DTD SVG 1.1//EN" "http://www.w3.org/Graphics/SVG/1.1/DTD/svg11.dtd">
<svg version="1.1" xmlns="http://www.w3.org/2000/svg" xmlns:xlink="http://www.w3.org/1999/xlink" preserveAspectRatio="xMidYMid meet" viewBox="0 0 226 226" width="226" height="226"><defs><path d="M194.81 172.49C195.78 178.96 194.69 194.09 191.56 217.91C177.74 205.75 170.71 198.73 170.48 196.82C169.48 188.74 170.22 172.78 172.68 148.95C187.23 163.33 194.61 171.18 194.81 172.49Z" id="e2Fc15KJl6"></path><path d="M60.65 45.02C63.21 43.51 65.88 43.47 68.66 44.89C69.85 45.5 74.92 50.58 83.89 60.12" id="a3A4YxbJAb"></path><path d="M105.53 89.9C108.1 88.4 110.77 88.36 113.54 89.78C114.73 90.39 119.81 95.46 128.77 105.01" id="a3jZy4ryld"></path><path d="M149.45 133.82C152.02 132.32 154.69 132.28 157.46 133.7C158.65 134.31 163.73 139.38 172.69 148.93" id="d5tvs1RdEf"></path><path d="M127.85 143.97C124.2 145.79 120.99 145.98 118.22 144.56C117.03 143.95 111.95 138.87 102.99 129.33" id="c3rRud7hN"></path><path d="M83.7 99.82C80.05 101.63 76.84 101.83 74.06 100.41C72.87 99.8 67.8 94.72 58.83 85.18" id="aWibNEZvl"></path><path d="M172.31 188.43C168.66 190.25 165.45 190.44 162.68 189.02C161.49 188.41 156.41 183.33 147.44 173.79" id="i1Fgi2h0sp"></path><path d="M151.1 128.36C152.07 134.82 150.99 149.96 147.85 173.77C134.03 161.62 127.01 154.59 126.77 152.69C125.78 144.6 126.52 128.64 128.98 104.81C143.53 119.2 150.91 127.05 151.1 128.36Z" id="b30yh8SqQb"></path><path d="M106.23 83.92C107.2 90.38 106.12 105.52 102.98 129.33C89.16 117.18 82.13 110.15 81.9 108.25C80.91 100.16 81.64 84.2 84.1 60.37C98.66 74.76 106.04 82.61 106.23 83.92Z" id="b5IgxhsB8G"></path><path d="M62.31 40C63.28 46.46 62.2 61.6 59.06 85.41C45.24 73.26 38.21 66.23 37.98 64.33C36.99 56.24 37.72 40.28 40.18 16.45C54.74 30.84 62.12 38.69 62.31 40Z" id="a27ZmfSXLq"></path><path d="M216.41 193.06L191.34 218.12" id="d6vHnwrEzb"></path><path d="M42.16 18.4L39.21 15.45L13.38 13.75L14.33 40.34" id="a62o5L8RtJ"></path><path d="M39.08 54.74C35.44 56.56 32.23 56.75 29.45 55.33C28.26 54.72 23.18 49.65 14.22 40.1" id="g5QDBcdS3a"></path><path d="M192.95 178.17C195.51 176.66 198.18 176.62 200.96 178.04C202.15 178.65 207.22 183.73 216.19 193.27" id="aitZPgugv"></path></defs><g><g><g><use xlink:href="#e2Fc15KJl6" opacity="1" fill="#000000" fill-opacity="1"></use><g><use xlink:href="#e2Fc15KJl6" opacity="1" fill-opacity="0" stroke="#090908" stroke-width="1" stroke-opacity="1"></use></g></g><g><g><use xlink:href="#a3A4YxbJAb" opacity="1" fill-opacity="0" stroke="#090908" stroke-width="1" stroke-opacity="1"></use></g></g><g><g><use xlink:href="#a3jZy4ryld" opacity="1" fill-opacity="0" stroke="#090908" stroke-width="1" stroke-opacity="1"></use></g></g><g><g><use xlink:href="#d5tvs1RdEf" opacity="1" fill-opacity="0" stroke="#090908" stroke-width="1" stroke-opacity="1"></use></g></g><g><g><use xlink:href="#c3rRud7hN" opacity="1" fill-opacity="0" stroke="#090908" stroke-width="1" stroke-opacity="1"></use></g></g><g><g><use xlink:href="#aWibNEZvl" opacity="1" fill-opacity="0" stroke="#090908" stroke-width="1" stroke-opacity="1"></use></g></g><g><g><use xlink:href="#i1Fgi2h0sp" opacity="1" fill-opacity="0" stroke="#090908" stroke-width="1" stroke-opacity="1"></use></g></g><g><use xlink:href="#b30yh8SqQb" opacity="1" fill="#000000" fill-opacity="1"></use><g><use xlink:href="#b30yh8SqQb" opacity="1" fill-opacity="0" stroke="#090908" stroke-width="1" stroke-opacity="1"></use></g></g><g><use xlink:href="#b5IgxhsB8G" opacity="1" fill="#000000" fill-opacity="1"></use><g><use xlink:href="#b5IgxhsB8G" opacity="1" fill-opacity="0" stroke="#090908" stroke-width="1" stroke-opacity="1"></use></g></g><g><use xlink:href="#a27ZmfSXLq" opacity="1" fill="#000000" fill-opacity="1"></use><g><use xlink:href="#a27ZmfSXLq" opacity="1" fill-opacity="0" stroke="#090908" stroke-width="1" stroke-opacity="1"></use></g></g><g><g><use xlink:href="#d6vHnwrEzb" opacity="1" fill-opacity="0" stroke="#090908" stroke-width="1" stroke-opacity="1"></use></g></g><g><g><use xlink:href="#a62o5L8RtJ" opacity="1" fill-opacity="0" stroke="#090908" stroke-width="1" stroke-opacity="1"></use></g></g><g><g><use xlink:href="#g5QDBcdS3a" opacity="1" fill-opacity="0" stroke="#090908" stroke-width="1" stroke-opacity="1"></use></g></g><g><g><use xlink:href="#aitZPgugv" opacity="1" fill-opacity="0" stroke="#090908" stroke-width="1" stroke-opacity="1"></use></g></g></g></g></svg>