<?xml version="1.0" encoding="UTF-8" standalone="no"?>
<!DOCTYPE svg PUBLIC "-//W3C//DTD SVG 1.1//EN" "http://www.w3.org/Graphics/SVG/1.1/DTD/svg11.dtd">
<svg version="1.1" xmlns="http://www.w3.org/2000/svg" xmlns:xlink="http://www.w3.org/1999/xlink" preserveAspectRatio="xMidYMid meet" viewBox="0 0 226 226" width="226" height="226"><defs><path d="M194.81 172.49C195.78 178.96 194.69 194.09 191.56 217.91C177.74 205.75 170.71 198.73 170.48 196.82C169.48 188.74 170.22 172.78 172.68 148.95C187.23 163.33 194.61 171.18 194.81 172.49Z" id="a1fG8HC5YI"></path><path d="M60.65 45.02C63.21 43.51 65.88 43.47 68.66 44.89C69.85 45.5 74.92 50.58 83.89 60.12" id="crOZsvQVx"></path><path d="M105.53 89.9C108.1 88.4 110.77 88.36 113.54 89.78C114.73 90.39 119.81 95.46 128.77 105.01" id="m5JFLtHa19"></path><path d="M149.45 133.82C152.02 132.32 154.69 132.28 157.46 133.7C158.65 134.31 163.73 139.38 172.69 148.93" id="a17gmaPt8z"></path><path d="M127.85 143.97C124.2 145.79 120.99 145.98 118.22 144.56C117.03 143.95 111.95 138.87 102.99 129.33" id="b4279qNLDN"></path><path d="M83.7 99.82C80.05 101.63 76.84 101.83 74.06 100.41C72.87 99.8 67.8 94.72 58.83 85.18" id="b14CVlseqE"></path><path d="M172.31 188.43C168.66 190.25 165.45 190.44 162.68 189.02C161.49 188.41 156.41 183.33 147.44 173.79" id="g2r73jBi2G"></path><path d="M151.1 128.38C152.07 134.84 150.99 149.98 147.85 173.79C134.03 161.64 127.01 154.61 126.77 152.71C125.78 144.62 126.52 128.66 128.98 104.83C143.53 119.22 150.91 127.07 151.1 128.38Z" id="a3447vUmNj"></path><path d="M106.23 83.92C107.2 90.38 106.12 105.52 102.98 129.33C89.16 117.18 82.13 110.15 81.9 108.25C80.91 100.16 81.64 84.2 84.1 60.37C98.66 74.76 106.04 82.61 106.23 83.92Z" id="aFjnTOrfV"></path><path d="M62.31 40C63.28 46.46 62.2 61.6 59.06 85.41C45.24 73.26 38.21 66.23 37.98 64.33C36.99 56.24 37.72 40.28 40.18 16.45C54.74 30.84 62.12 38.69 62.31 40Z" id="fJ7ZeNa6j"></path><path d="M216.41 193.06L191.34 218.12" id="j5cbfHZhs"></path><path d="M42.16 18.4L39.21 15.45L13.38 13.75L14.33 40.34" id="f1QpsiEdc2"></path><path d="M39.08 54.74C35.44 56.56 32.23 56.75 29.45 55.33C28.26 54.72 23.18 49.65 14.22 40.1" id="cNulGADJY"></path><path d="M192.95 178.17C195.51 176.66 198.18 176.62 200.96 178.04C202.15 178.65 207.22 183.73 216.19 193.27" id="b1b4MxFQac"></path></defs><g><g><g><use xlink:href="#a1fG8HC5YI" opacity="1" fill="#4e342e" fill-opacity="1"></use><g><use xlink:href="#a1fG8HC5YI" opacity="1" fill-opacity="0" stroke="#4e342e" stroke-width="1" stroke-opacity="1"></use></g></g><g><g><use xlink:href="#crOZsvQVx" opacity="1" fill-opacity="0" stroke="#4e342e" stroke-width="1" stroke-opacity="1"></use></g></g><g><g><use xlink:href="#m5JFLtHa19" opacity="1" fill-opacity="0" stroke="#4e342e" stroke-width="1" stroke-opacity="1"></use></g></g><g><g><use xlink:href="#a17gmaPt8z" opacity="1" fill-opacity="0" stroke="#4e342e" stroke-width="1" stroke-opacity="1"></use></g></g><g><g><use xlink:href="#b4279qNLDN" opacity="1" fill-opacity="0" stroke="#4e342e" stroke-width="1" stroke-opacity="1"></use></g></g><g><g><use xlink:href="#b14CVlseqE" opacity="1" fill-opacity="0" stroke="#4e342e" stroke-width="1" stroke-opacity="1"></use></g></g><g><g><use xlink:href="#g2r73jBi2G" opacity="1" fill-opacity="0" stroke="#4e342e" stroke-width="1" stroke-opacity="1"></use></g></g><g><use xlink:href="#a3447vUmNj" opacity="1" fill="#4e342e" fill-opacity="1"></use><g><use xlink:href="#a3447vUmNj" opacity="1" fill-opacity="0" stroke="#4e342e" stroke-width="1" stroke-opacity="1"></use></g></g><g><use xlink:href="#aFjnTOrfV" opacity="1" fill="#4e342e" fill-opacity="1"></use><g><use xlink:href="#aFjnTOrfV" opacity="1" fill-opacity="0" stroke="#4e342e" stroke-width="1" stroke-opacity="1"></use></g></g><g><use xlink:href="#fJ7ZeNa6j" opacity="1" fill="#4e342e" fill-opacity="1"></use><g><use xlink:href="#fJ7ZeNa6j" opacity="1" fill-opacity="0" stroke="#4e342e" stroke-width="1" stroke-opacity="1"></use></g></g><g><g><use xlink:href="#j5cbfHZhs" opacity="1" fill-opacity="0" stroke="#4e342e" stroke-width="1" stroke-opacity="1"></use></g></g><g><g><use xlink:href="#f1QpsiEdc2" opacity="1" fill-opacity="0" stroke="#4e342e" stroke-width="1" stroke-opacity="1"></use></g></g><g><g><use xlink:href="#cNulGADJY" opacity="1" fill-opacity="0" stroke="#4e342e" stroke-width="1" stroke-opacity="1"></use></g></g><g><g><use xlink:href="#b1b4MxFQac" opacity="1" fill-opacity="0" stroke="#4e342e" stroke-width="1" stroke-opacity="1"></use></g></g></g></g></svg>