<?xml version="1.0" encoding="UTF-8" standalone="no"?>
<!-- Created with Inkscape (http://www.inkscape.org/) -->
<!-- http://www.hoerbiger.com/fileadmin/files/internet/KT/KT-Internet/Products_Services/Downloadcenter_brochures/English/Hydrogen_EN.pdf -->
<svg xmlns:svg="http://www.w3.org/2000/svg" xmlns="http://www.w3.org/2000/svg" version="1.0" width="199" height="69">
  <path d="M 133.4125,0 L 127.1875,27.00875 L 133.1,27.00875 L 139.325,0 L 133.4125,0 M 146,19.13 L 145.8375,19.91125 C 151.9,21.16375 155.65,23.52375 155.65,26.235 C 155.65,30.25375 147.0125,33.51375 135.9125,33.51375 C 124.8125,33.51375 116.175,30.25375 116.175,26.235 C 116.175,23.45375 120.1375,21.04125 126.4625,19.81625 L 126.6375,19.01125 L 126.6375,18.99625 C 118.3125,20.2975 112.475,23.29625 112.475,26.7925 C 112.475,31.48 122.975,35.28125 135.9125,35.28125 C 148.85,35.28125 159.3375,31.48 159.3375,26.7925 C 159.3375,23.41125 153.8875,20.495 146,19.13 M 19.3375,67.96875 L 13.4125,67.96875 L 15.825,57.50125 L 8.3375,57.50125 L 5.925,67.96875 L 0,67.96875 L 5.85,42.59375 L 11.775,42.59375 L 9.4875,52.50625 L 16.975,52.50625 L 19.2625,42.59375 L 25.1875,42.59375 L 19.3375,67.96875 M 38.1125,47.06875 C 36.075,47.06875 35.075,48.105 33.95,49.95375 C 33.0125,51.47125 32.2875,53.6525 31.925,55.24375 C 31.2,58.425 30.1625,63.49375 34.35,63.49375 C 36.375,63.49375 37.7125,62.49375 38.8125,60.6075 C 39.7625,59.05375 40.4375,56.945 40.8125,55.28125 C 41.2375,53.43125 41.55,51.24875 41.2,49.5475 C 40.85,47.84625 39.9625,47.06875 38.1125,47.06875 z M 33.2375,68.3375 C 29.7875,68.3375 27.6375,67.155 26.2875,64.3425 C 25.0375,61.7175 24.9875,58.425 25.7125,55.24375 C 27.25,48.51125 31.7125,42.22375 39.225,42.22375 C 42.5875,42.22375 45,43.33375 46.3875,46.1075 C 47.6375,48.585 47.7375,52.17375 47.0375,55.24375 C 46.375,58.13 44.7875,61.64375 42.6125,64.0475 C 39.9875,66.9325 36.675,68.3375 33.2375,68.3375 M 58.15,47.51375 L 56.9625,52.655 L 66.2375,52.655 L 65.1375,57.42625 L 55.875,57.42625 L 54.5875,63.04875 L 66.4375,63.04875 L 65.3125,67.96875 L 47.5375,67.96875 L 53.35,42.59375 L 71.125,42.59375 L 70,47.51375 L 58.15,47.51375 M 79.675,47.10625 L 82.6,47.10625 C 83.7125,47.10625 85.45,46.95875 86.3,47.58625 C 87.0375,48.105 87.3875,49.1775 87.15,50.17625 C 86.9,51.28625 86.1125,52.47 85.0125,53.06125 C 83.8,53.69 82.4875,53.57875 81.2625,53.57875 L 78.1875,53.57875 L 79.675,47.10625 z M 77.3625,57.945 L 81.3375,57.945 L 82.925,67.96875 L 89.5125,67.96875 L 87.3875,56.76 C 90.35,55.76125 92.625,53.09875 93.2875,50.21375 C 93.85,47.735 93.275,45.2575 91.5125,43.88875 C 89.85,42.63125 87.5625,42.59375 85.3,42.59375 L 74.9625,42.59375 L 69.15,67.96875 L 75.0625,67.96875 L 77.3625,57.945 M 103.9625,47.10625 L 107.2,47.10625 C 108.1875,47.10625 109.775,46.995 110.5125,47.47625 C 111.2125,47.9575 111.45,48.84375 111.25,49.77 C 111.05,50.62 110.4625,51.545 109.65,52.0625 C 108.6,52.72875 107.4,52.655 106.3625,52.655 L 102.6875,52.655 L 103.9625,47.10625 z M 98.925,42.59375 L 93.075,67.96875 L 104.2625,67.96875 C 106.4375,67.96875 108.925,67.96875 111.0875,66.6 C 113.1625,65.305 114.9375,63.345 115.45,61.125 C 116.2,57.83375 114.6125,55.42875 111.6125,54.8 L 111.625,54.72625 C 114.4375,54.06 116.8,52.13625 117.4625,49.2525 C 118.0125,46.8475 117.375,44.9975 115.625,43.70375 C 114.15,42.59375 112.075,42.59375 110.075,42.59375 L 98.925,42.59375 z M 101.65,57.1675 L 105.6625,57.1675 C 106.625,57.1675 107.8125,57.1675 108.55,57.64875 C 109.2875,58.13 109.65,59.1275 109.4375,60.09 C 109.2,61.125 108.475,62.16125 107.5,62.71625 C 106.425,63.345 105.075,63.27 104,63.27 L 100.25,63.27 L 101.65,57.1675 M 162.675,47.51375 L 161.5,52.655 L 170.7625,52.655 L 169.6625,57.42625 L 160.4,57.42625 L 159.1125,63.04875 L 170.9625,63.04875 L 169.8375,67.96875 L 152.0625,67.96875 L 157.8875,42.59375 L 175.6625,42.59375 L 174.525,47.51375 L 162.675,47.51375 M 184.4625,47.10625 L 187.225,47.10625 C 188.325,47.10625 190.0625,46.95875 190.925,47.58625 C 191.65,48.105 192,49.1775 191.775,50.17625 C 191.5125,51.28625 190.725,52.47 189.625,53.06125 C 188.4125,53.69 187.1125,53.57875 185.8875,53.57875 L 182.9875,53.57875 L 184.4625,47.10625 z M 181.975,57.945 L 185.9625,57.945 L 187.5375,67.96875 L 194.125,67.96875 L 192,56.76 C 194.9625,55.76125 197.2375,53.09875 197.9,50.21375 C 198.475,47.735 197.8875,45.2575 196.1375,43.88875 C 194.4625,42.63125 192.175,42.59375 189.925,42.59375 L 179.5875,42.59375 L 173.7625,67.96875 L 179.6875,67.96875 L 181.975,57.945 M 151.725,50.77875 C 151.7375,50.6475 151.7375,50.52375 151.7375,50.395 C 152.0125,45.395 149.25,42.26375 144.175,42.10125 L 144.075,42.0975 L 143.7625,42.08625 L 143.65,42.08875 L 143.5125,42.08625 C 136,42.08625 131.55,48.37375 130,55.10625 C 129.7,56.42375 129.55,57.7575 129.5375,59.0575 C 129.3625,64.14125 131.8,68.2825 137.8375,68.2825 C 137.8625,68.2825 141.625,68.62625 145.3,66.01125 C 149.8875,62.74375 151.425,54.44625 151.425,54.44625 L 145.2875,54.43125 L 140.4875,54.43125 L 139.4125,58.99 L 144.575,58.99 C 144.125,61.57875 141.575,63.39125 138.9875,63.39125 C 138.7,63.39125 138.4375,63.36375 138.1875,63.31875 C 136.0125,62.935 135.6875,60.97 135.6875,58.79625 C 135.725,57.53125 135.9625,56.20625 136.225,55.10625 C 136.475,53.98125 136.9125,52.56375 137.4875,51.2925 C 138.35,49.4425 139.25,47.75 141.0125,47.12 C 141.475,46.95375 141.975,46.8575 142.525,46.8575 C 145.0875,46.8575 146.05,48.59125 145.975,50.795 L 151.6,50.795 L 151.725,50.77875 M 123.6625,67.96875 L 117.75,67.96875 L 123.6,42.59375 L 129.5125,42.59375 L 123.6625,67.96875" style="fill:#075289;fill-opacity:1;fill-rule:nonzero;stroke:none"/>
  <path d="M 139.575,11.75125 L 136.05,27.00875 L 141.9625,27.00875 L 145.4875,11.75125 L 139.575,11.75125" style="fill:#8d172e;fill-opacity:1;fill-rule:nonzero;stroke:none"/>
</svg>