<?xml version="1.0" encoding="UTF-8" standalone="no"?>
<svg
   xmlns:dc="http://purl.org/dc/elements/1.1/"
   xmlns:cc="http://creativecommons.org/ns#"
   xmlns:rdf="http://www.w3.org/1999/02/22-rdf-syntax-ns#"
   xmlns:svg="http://www.w3.org/2000/svg"
   xmlns="http://www.w3.org/2000/svg"
   xmlns:xlink="http://www.w3.org/1999/xlink"
   xmlns:sodipodi="http://sodipodi.sourceforge.net/DTD/sodipodi-0.dtd"
   xmlns:inkscape="http://www.inkscape.org/namespaces/inkscape"
   version="1.1"
   preserveAspectRatio="xMidYMid meet"
   viewBox="0 0 170 170"
   id="svg315"
   sodipodi:docname="untitled.svg"
   width="256"
   height="256"
   inkscape:version="0.92.0 r">
  <metadata
     id="metadata319">
    <rdf:RDF>
      <cc:Work
         rdf:about="">
        <dc:format>image/svg+xml</dc:format>
        <dc:type
           rdf:resource="http://purl.org/dc/dcmitype/StillImage" />
        <dc:title></dc:title>
      </cc:Work>
    </rdf:RDF>
  </metadata>
  <sodipodi:namedview
     pagecolor="#ffffff"
     bordercolor="#666666"
     borderopacity="1"
     objecttolerance="10"
     gridtolerance="10"
     guidetolerance="10"
     inkscape:pageopacity="0"
     inkscape:pageshadow="2"
     inkscape:window-width="2560"
     inkscape:window-height="1571"
     id="namedview317"
     showgrid="false"
     fit-margin-top="-0.3"
     fit-margin-left="0"
     fit-margin-right="0"
     fit-margin-bottom="0"
     inkscape:showpageshadow="false"
     inkscape:zoom="1.475"
     inkscape:cx="119.94424"
     inkscape:cy="-70.10387"
     inkscape:window-x="0"
     inkscape:window-y="55"
     inkscape:window-maximized="1"
     inkscape:current-layer="svg315" />
  <defs
     id="defs37">
    <path
       d="m 307.5,125 v 77.5 h -40 c 6.92,-6.52 11.25,-10.6 12.98,-12.23 10.65,-10.04 13.56,-25.81 7.21,-38.99 -1.7,-3.5 -5.92,-12.26 -12.69,-26.28 z"
       id="b4uKMuYK1"
       inkscape:connector-curvature="0" />
    <path
       d="m 273.88,120.52 c -0.13,0.28 -4.87,3.3 -11.17,0.5 -6.3,-2.81 -11.99,-9.96 -11.67,-10.67 0.32,-0.72 9.44,-1.27 15.74,1.53 6.3,2.81 7.23,8.35 7.1,8.64 z"
       id="a11o2pYgHZ"
       inkscape:connector-curvature="0" />
    <path
       d="m 259,102.25 c -0.13,0.29 -4.2,3.61 -9.02,1.46 -4.81,-2.14 -8.75,-8.51 -8.43,-9.23 0.31,-0.71 7.69,-2.05 12.5,0.1 4.82,2.14 5.07,7.39 4.95,7.67 z"
       id="c1wS0spwuh"
       inkscape:connector-curvature="0" />
    <path
       d="m 282.79,114.2 c -0.2,0.24 -5.59,1.84 -10.87,-2.59 -5.29,-4.44 -8.78,-12.88 -8.28,-13.48 0.5,-0.59 9.42,1.38 14.7,5.82 5.29,4.43 4.65,10.02 4.45,10.25 z"
       id="b12BSGn90b"
       inkscape:connector-curvature="0" />
    <path
       d="m 268.39,125.43 c -0.12,-0.28 -4.33,-3.54 -9.45,-1.26 -5.12,2.28 -9.41,8.81 -9.1,9.52 0.32,0.71 8.05,1.89 13.17,-0.39 5.12,-2.28 5.51,-7.58 5.38,-7.87 z"
       id="c3wp9so0N"
       inkscape:connector-curvature="0" />
    <path
       d="m 243.83,111.58 c 0,0.31 -2.61,5 -8.43,5 -5.82,0 -12.65,-4.22 -12.65,-5 0,-0.78 6.83,-5 12.65,-5 5.82,0 8.43,4.69 8.43,5 z"
       id="a1lEGZlZzp"
       inkscape:connector-curvature="0" />
    <path
       d="m 304.24,109.88 c -0.31,0.04 -5.38,-2.38 -6.34,-9.21 -0.96,-6.83 2.09,-15.44 2.86,-15.55 0.77,-0.11 6.08,7.33 7.04,14.16 0.96,6.83 -3.25,10.55 -3.56,10.6 z"
       id="c2irgg26zN"
       inkscape:connector-curvature="0" />
    <path
       d="m 306.79,80.57 c -0.31,0.05 -5.31,-1.83 -6.1,-7.47 -0.79,-5.63 2.45,-12.84 3.23,-12.95 0.77,-0.11 5.88,5.92 6.67,11.56 0.79,5.64 -3.49,8.82 -3.8,8.86 z"
       id="b2i6dacK3"
       inkscape:connector-curvature="0" />
    <path
       d="m 306.13,58.04 c -0.31,0.05 -5.23,-1.3 -5.86,-5.74 -0.62,-4.43 2.83,-10.24 3.6,-10.34 0.77,-0.11 5.68,4.51 6.31,8.95 0.62,4.44 -3.74,7.09 -4.05,7.13 z"
       id="h2azlqOmi"
       inkscape:connector-curvature="0" />
    <path
       d="m 295.52,118.45 c -0.29,0.13 -6.1,-1.39 -9.5,-9.02 -3.39,-7.64 -3.53,-18.31 -2.82,-18.63 0.72,-0.32 8.56,6.93 11.96,14.56 3.4,7.63 0.64,12.97 0.36,13.09 z"
       id="d1uLtMBS73"
       inkscape:connector-curvature="0" />
    <path
       d="m 272.35,90.11 c -0.26,0.19 -5.76,0.58 -9.58,-4.67 -3.82,-5.26 -4.88,-13.9 -4.25,-14.36 0.63,-0.46 8.52,3.23 12.34,8.48 3.82,5.25 1.74,10.37 1.49,10.55 z"
       id="g1pLUKOTO"
       inkscape:connector-curvature="0" />
    <path
       d="m 289.97,85.66 c -0.28,0.13 -5.97,-0.97 -9.17,-7.84 -3.21,-6.87 -3.15,-16.73 -2.44,-17.06 0.71,-0.33 8.3,5.96 11.5,12.83 3.2,6.87 0.4,11.94 0.11,12.07 z"
       id="bOw4N31Kr"
       inkscape:connector-curvature="0" />
    <path
       d="m 270.16,65.57 c -0.28,0.14 -5.38,0.38 -7.35,-3.65 -1.96,-4.03 -0.48,-10.62 0.22,-10.96 0.7,-0.34 6.8,2.54 8.77,6.58 1.97,4.03 -1.36,7.9 -1.64,8.03 z"
       id="c16lWwwYSd"
       inkscape:connector-curvature="0" />
    <path
       d="m 250,80 c -0.17,0.26 -4.4,3.11 -8.12,0.69 -3.72,-2.42 -5.79,-8.79 -5.37,-9.45 0.43,-0.65 7.1,-1.35 10.82,1.06 3.72,2.42 2.84,7.44 2.67,7.7 z"
       id="mYAwMtyXg"
       inkscape:connector-curvature="0" />
    <path
       d="m 236.47,96.58 c -0.11,0.29 -3.72,3.89 -7.83,2.23 -4.12,-1.66 -7.37,-7.53 -7.07,-8.25 0.29,-0.72 6.7,-2.68 10.81,-1.02 4.12,1.66 4.21,6.75 4.09,7.04 z"
       id="afoQk6Fs5"
       inkscape:connector-curvature="0" />
    <path
       d="m 290.52,56.48 c -0.28,0.14 -5.35,0.58 -7.44,-3.33 -2.08,-3.92 -0.8,-10.5 -0.11,-10.87 0.69,-0.37 6.86,2.25 8.94,6.17 2.09,3.92 -1.12,7.88 -1.39,8.03 z"
       id="aC2yHm7oU"
       inkscape:connector-curvature="0" />
    <path
       d="m 274.18,138.46 c -0.16,-0.26 -5.28,-2.6 -11.13,1.06 -5.85,3.66 -10.48,11.53 -10.07,12.19 0.41,0.66 9.52,-0.05 15.37,-3.71 5.85,-3.66 6,-9.27 5.83,-9.54 z"
       id="a1Oz08iKUc"
       inkscape:connector-curvature="0" />
    <path
       d="m 247.89,137.78 c 0.11,0.29 -0.65,5.6 -6.08,7.69 -5.43,2.08 -13.32,0.59 -13.6,-0.14 -0.28,-0.73 4.58,-7.11 10.01,-9.2 5.44,-2.08 9.56,1.36 9.67,1.65 z"
       id="aDjsGxjQI"
       inkscape:connector-curvature="0" />
    <path
       d="m 235.06,125.39 c 0.1,0.3 -0.26,5.38 -4.46,6.83 -4.19,1.44 -10.49,-0.85 -10.75,-1.59 -0.25,-0.74 3.3,-6.42 7.5,-7.87 4.19,-1.44 7.61,2.34 7.71,2.63 z"
       id="c8ytKmyG9"
       inkscape:connector-curvature="0" />
    <path
       d="m 317.14,85.63 c 0.28,0.13 5.97,-0.98 9.17,-7.85 3.21,-6.87 3.14,-16.72 2.44,-17.05 -0.71,-0.33 -8.3,5.95 -11.5,12.82 -3.21,6.87 -0.4,11.94 -0.11,12.08 z"
       id="a6ZV0vqYwX"
       inkscape:connector-curvature="0" />
    <path
       d="m 299.61,124.96 v 77.5 h 40 c -6.93,-6.52 -11.25,-10.6 -12.99,-12.23 -10.64,-10.03 -13.56,-25.81 -7.2,-38.99 1.69,-3.5 5.92,-12.26 12.69,-26.28 z"
       id="a5PcqSWdXc"
       inkscape:connector-curvature="0" />
    <path
       d="m 348.11,102.22 c 0.13,0.28 4.2,3.6 9.01,1.46 4.82,-2.15 8.76,-8.52 8.44,-9.23 -0.32,-0.72 -7.69,-2.05 -12.5,0.09 -4.82,2.14 -5.08,7.39 -4.95,7.68 z"
       id="f3ttg3mRX"
       inkscape:connector-curvature="0" />
    <path
       d="m 324.32,114.17 c 0.2,0.24 5.59,1.83 10.87,-2.6 5.29,-4.43 8.78,-12.87 8.28,-13.47 -0.5,-0.6 -9.42,1.38 -14.71,5.81 -5.28,4.43 -4.64,10.02 -4.44,10.26 z"
       id="bjGYAixHq"
       inkscape:connector-curvature="0" />
    <path
       d="m 338.71,125.4 c 0.13,-0.29 4.34,-3.55 9.46,-1.27 5.12,2.28 9.41,8.81 9.09,9.52 -0.31,0.72 -8.04,1.9 -13.16,-0.38 -5.12,-2.28 -5.51,-7.59 -5.39,-7.87 z"
       id="bvB1SHIwp"
       inkscape:connector-curvature="0" />
    <path
       d="m 363.28,111.54 c 0,0.32 2.61,5 8.43,5 5.82,0 12.65,-4.21 12.65,-5 0,-0.78 -6.83,-5 -12.65,-5 -5.82,0 -8.43,4.69 -8.43,5 z"
       id="c51wYaR7bs"
       inkscape:connector-curvature="0" />
    <path
       d="m 311.59,118.42 c 0.29,0.12 6.1,-1.4 9.49,-9.03 3.4,-7.63 3.54,-18.31 2.82,-18.63 -0.71,-0.32 -8.55,6.93 -11.95,14.56 -3.4,7.63 -0.64,12.97 -0.36,13.1 z"
       id="b2bUhO0ivC"
       inkscape:connector-curvature="0" />
    <path
       d="m 334.76,90.08 c 0.25,0.18 5.76,0.57 9.58,-4.68 3.81,-5.25 4.88,-13.9 4.25,-14.36 -0.63,-0.46 -8.53,3.23 -12.34,8.48 -3.82,5.26 -1.74,10.37 -1.49,10.56 z"
       id="c7dE0Tfmz"
       inkscape:connector-curvature="0" />
    <path
       d="m 333.23,120.48 c 0.12,0.29 4.86,3.31 11.17,0.5 6.3,-2.81 11.98,-9.96 11.67,-10.67 -0.32,-0.71 -9.44,-1.27 -15.74,1.53 -6.3,2.81 -7.23,8.35 -7.1,8.64 z"
       id="bcWm8rQua"
       inkscape:connector-curvature="0" />
    <path
       d="m 336.95,65.54 c 0.28,0.13 5.38,0.38 7.35,-3.66 1.96,-4.03 0.48,-10.61 -0.22,-10.96 -0.7,-0.34 -6.81,2.55 -8.77,6.58 -1.97,4.03 1.36,7.9 1.64,8.04 z"
       id="a2DpSSJfIr"
       inkscape:connector-curvature="0" />
    <path
       d="m 357.11,79.96 c 0.17,0.27 4.39,3.11 8.12,0.69 3.72,-2.41 5.79,-8.79 5.36,-9.44 -0.42,-0.66 -7.09,-1.36 -10.81,1.06 -3.72,2.41 -2.84,7.43 -2.67,7.69 z"
       id="b301nZJxs1"
       inkscape:connector-curvature="0" />
    <path
       d="m 370.63,96.55 c 0.12,0.29 3.73,3.89 7.84,2.22 4.11,-1.66 7.37,-7.52 7.07,-8.25 -0.29,-0.72 -6.7,-2.68 -10.82,-1.02 -4.11,1.66 -4.2,6.76 -4.09,7.05 z"
       id="eUrRVtfWv"
       inkscape:connector-curvature="0" />
    <path
       d="m 316.59,56.44 c 0.28,0.15 5.35,0.59 7.43,-3.33 2.09,-3.92 0.81,-10.5 0.12,-10.87 -0.69,-0.36 -6.86,2.26 -8.95,6.17 -2.08,3.92 1.12,7.88 1.4,8.03 z"
       id="bhNUbu1Fl"
       inkscape:connector-curvature="0" />
    <path
       d="m 332.93,138.42 c 0.16,-0.26 5.28,-2.59 11.13,1.06 5.85,3.66 10.48,11.53 10.07,12.19 -0.42,0.66 -9.52,-0.05 -15.37,-3.71 -5.85,-3.65 -6,-9.27 -5.83,-9.54 z"
       id="b2cLsioUhb"
       inkscape:connector-curvature="0" />
    <path
       d="m 359.22,137.74 c -0.11,0.29 0.65,5.61 6.08,7.69 5.43,2.09 13.32,0.59 13.6,-0.13 0.28,-0.73 -4.59,-7.12 -10.02,-9.21 -5.43,-2.08 -9.55,1.36 -9.66,1.65 z"
       id="cce8DYmab"
       inkscape:connector-curvature="0" />
    <path
       d="m 372.05,125.36 c -0.1,0.29 0.26,5.37 4.45,6.82 4.2,1.44 10.5,-0.85 10.75,-1.59 0.26,-0.74 -3.29,-6.42 -7.49,-7.87 -4.2,-1.44 -7.61,2.34 -7.71,2.64 z"
       id="dKLmmQ7jy"
       inkscape:connector-curvature="0" />
  </defs>
  <g
     visibility="inherit"
     id="g313"
     style="visibility:inherit"
     transform="translate(-219.32278,-32.999994)">
    <g
       visibility="inherit"
       id="g311"
       style="visibility:inherit">
      <g
         visibility="inherit"
         id="g45"
         style="visibility:inherit">
        <use
           xlink:href="#b4uKMuYK1"
           id="use39"
           style="opacity:1;fill:#DBA72E;fill-opacity:1"
           x="0"
           y="0"
           width="100%"
           height="100%" />
        <g
           id="g43">
          <use
             xlink:href="#b4uKMuYK1"
             id="use41"
             style="opacity:1;fill-opacity:0;stroke:#DBA72E;stroke-width:1;stroke-opacity:1"
             x="0"
             y="0"
             width="100%"
             height="100%" />
        </g>
      </g>
      <g
         visibility="inherit"
         id="g53"
         style="visibility:inherit">
        <use
           xlink:href="#a11o2pYgHZ"
           id="use47"
           style="opacity:1;fill:#DBA72E;fill-opacity:1"
           x="0"
           y="0"
           width="100%"
           height="100%" />
        <g
           id="g51">
          <use
             xlink:href="#a11o2pYgHZ"
             id="use49"
             style="opacity:1;fill-opacity:0;stroke:#DBA72E;stroke-width:1;stroke-opacity:1"
             x="0"
             y="0"
             width="100%"
             height="100%" />
        </g>
      </g>
      <g
         visibility="inherit"
         id="g61"
         style="visibility:inherit">
        <use
           xlink:href="#c1wS0spwuh"
           id="use55"
           style="opacity:1;fill:#DBA72E;fill-opacity:1"
           x="0"
           y="0"
           width="100%"
           height="100%" />
        <g
           id="g59">
          <use
             xlink:href="#c1wS0spwuh"
             id="use57"
             style="opacity:1;fill-opacity:0;stroke:#DBA72E;stroke-width:1;stroke-opacity:1"
             x="0"
             y="0"
             width="100%"
             height="100%" />
        </g>
      </g>
      <g
         visibility="inherit"
         id="g69"
         style="visibility:inherit">
        <use
           xlink:href="#b12BSGn90b"
           id="use63"
           style="opacity:1;fill:#DBA72E;fill-opacity:1"
           x="0"
           y="0"
           width="100%"
           height="100%" />
        <g
           id="g67">
          <use
             xlink:href="#b12BSGn90b"
             id="use65"
             style="opacity:1;fill-opacity:0;stroke:#DBA72E;stroke-width:1;stroke-opacity:1"
             x="0"
             y="0"
             width="100%"
             height="100%" />
        </g>
      </g>
      <g
         visibility="inherit"
         id="g77"
         style="visibility:inherit">
        <use
           xlink:href="#c3wp9so0N"
           id="use71"
           style="opacity:1;fill:#DBA72E;fill-opacity:1"
           x="0"
           y="0"
           width="100%"
           height="100%" />
        <g
           id="g75">
          <use
             xlink:href="#c3wp9so0N"
             id="use73"
             style="opacity:1;fill-opacity:0;stroke:#DBA72E;stroke-width:1;stroke-opacity:1"
             x="0"
             y="0"
             width="100%"
             height="100%" />
        </g>
      </g>
      <g
         visibility="inherit"
         id="g85"
         style="visibility:inherit">
        <use
           xlink:href="#a1lEGZlZzp"
           id="use79"
           style="opacity:1;fill:#DBA72E;fill-opacity:1"
           x="0"
           y="0"
           width="100%"
           height="100%" />
        <g
           id="g83">
          <use
             xlink:href="#a1lEGZlZzp"
             id="use81"
             style="opacity:1;fill-opacity:0;stroke:#DBA72E;stroke-width:1;stroke-opacity:1"
             x="0"
             y="0"
             width="100%"
             height="100%" />
        </g>
      </g>
      <g
         visibility="inherit"
         id="g93"
         style="visibility:inherit">
        <use
           xlink:href="#c2irgg26zN"
           id="use87"
           style="opacity:1;fill:#DBA72E;fill-opacity:1"
           x="0"
           y="0"
           width="100%"
           height="100%" />
        <g
           id="g91">
          <use
             xlink:href="#c2irgg26zN"
             id="use89"
             style="opacity:1;fill-opacity:0;stroke:#DBA72E;stroke-width:1;stroke-opacity:1"
             x="0"
             y="0"
             width="100%"
             height="100%" />
        </g>
      </g>
      <g
         visibility="inherit"
         id="g101"
         style="visibility:inherit">
        <use
           xlink:href="#b2i6dacK3"
           id="use95"
           style="opacity:1;fill:#DBA72E;fill-opacity:1"
           x="0"
           y="0"
           width="100%"
           height="100%" />
        <g
           id="g99">
          <use
             xlink:href="#b2i6dacK3"
             id="use97"
             style="opacity:1;fill-opacity:0;stroke:#DBA72E;stroke-width:1;stroke-opacity:1"
             x="0"
             y="0"
             width="100%"
             height="100%" />
        </g>
      </g>
      <g
         visibility="inherit"
         id="g109"
         style="visibility:inherit">
        <use
           xlink:href="#h2azlqOmi"
           id="use103"
           style="opacity:1;fill:#DBA72E;fill-opacity:1"
           x="0"
           y="0"
           width="100%"
           height="100%" />
        <g
           id="g107">
          <use
             xlink:href="#h2azlqOmi"
             id="use105"
             style="opacity:1;fill-opacity:0;stroke:#DBA72E;stroke-width:1;stroke-opacity:1"
             x="0"
             y="0"
             width="100%"
             height="100%" />
        </g>
      </g>
      <g
         visibility="inherit"
         id="g117"
         style="visibility:inherit">
        <use
           xlink:href="#d1uLtMBS73"
           id="use111"
           style="opacity:1;fill:#DBA72E;fill-opacity:1"
           x="0"
           y="0"
           width="100%"
           height="100%" />
        <g
           id="g115">
          <use
             xlink:href="#d1uLtMBS73"
             id="use113"
             style="opacity:1;fill-opacity:0;stroke:#DBA72E;stroke-width:1;stroke-opacity:1"
             x="0"
             y="0"
             width="100%"
             height="100%" />
        </g>
      </g>
      <g
         visibility="inherit"
         id="g125"
         style="visibility:inherit">
        <use
           xlink:href="#g1pLUKOTO"
           id="use119"
           style="opacity:1;fill:#DBA72E;fill-opacity:1"
           x="0"
           y="0"
           width="100%"
           height="100%" />
        <g
           id="g123">
          <use
             xlink:href="#g1pLUKOTO"
             id="use121"
             style="opacity:1;fill-opacity:0;stroke:#DBA72E;stroke-width:1;stroke-opacity:1"
             x="0"
             y="0"
             width="100%"
             height="100%" />
        </g>
      </g>
      <g
         visibility="inherit"
         id="g133"
         style="visibility:inherit">
        <use
           xlink:href="#bOw4N31Kr"
           id="use127"
           style="opacity:1;fill:#DBA72E;fill-opacity:1"
           x="0"
           y="0"
           width="100%"
           height="100%" />
        <g
           id="g131">
          <use
             xlink:href="#bOw4N31Kr"
             id="use129"
             style="opacity:1;fill-opacity:0;stroke:#DBA72E;stroke-width:1;stroke-opacity:1"
             x="0"
             y="0"
             width="100%"
             height="100%" />
        </g>
      </g>
      <g
         visibility="inherit"
         id="g141"
         style="visibility:inherit">
        <use
           xlink:href="#c16lWwwYSd"
           id="use135"
           style="opacity:1;fill:#DBA72E;fill-opacity:1"
           x="0"
           y="0"
           width="100%"
           height="100%" />
        <g
           id="g139">
          <use
             xlink:href="#c16lWwwYSd"
             id="use137"
             style="opacity:1;fill-opacity:0;stroke:#DBA72E;stroke-width:1;stroke-opacity:1"
             x="0"
             y="0"
             width="100%"
             height="100%" />
        </g>
      </g>
      <g
         visibility="inherit"
         id="g145"
         style="visibility:inherit">
        <use
           xlink:href="#mYAwMtyXg"
           id="use143"
           style="opacity:1;fill:#DBA72E;fill-opacity:1"
           x="0"
           y="0"
           width="100%"
           height="100%" />
      </g>
      <g
         visibility="inherit"
         id="g153"
         style="visibility:inherit">
        <use
           xlink:href="#afoQk6Fs5"
           id="use147"
           style="opacity:1;fill:#DBA72E;fill-opacity:1"
           x="0"
           y="0"
           width="100%"
           height="100%" />
        <g
           id="g151">
          <use
             xlink:href="#afoQk6Fs5"
             id="use149"
             style="opacity:1;fill-opacity:0;stroke:#DBA72E;stroke-width:1;stroke-opacity:1"
             x="0"
             y="0"
             width="100%"
             height="100%" />
        </g>
      </g>
      <g
         visibility="inherit"
         id="g161"
         style="visibility:inherit">
        <use
           xlink:href="#aC2yHm7oU"
           id="use155"
           style="opacity:1;fill:#DBA72E;fill-opacity:1"
           x="0"
           y="0"
           width="100%"
           height="100%" />
        <g
           id="g159">
          <use
             xlink:href="#aC2yHm7oU"
             id="use157"
             style="opacity:1;fill-opacity:0;stroke:#DBA72E;stroke-width:1;stroke-opacity:1"
             x="0"
             y="0"
             width="100%"
             height="100%" />
        </g>
      </g>
      <g
         visibility="inherit"
         id="g169"
         style="visibility:inherit">
        <use
           xlink:href="#a1Oz08iKUc"
           id="use163"
           style="opacity:1;fill:#DBA72E;fill-opacity:1"
           x="0"
           y="0"
           width="100%"
           height="100%" />
        <g
           id="g167">
          <use
             xlink:href="#a1Oz08iKUc"
             id="use165"
             style="opacity:1;fill-opacity:0;stroke:#DBA72E;stroke-width:1;stroke-opacity:1"
             x="0"
             y="0"
             width="100%"
             height="100%" />
        </g>
      </g>
      <g
         visibility="inherit"
         id="g177"
         style="visibility:inherit">
        <use
           xlink:href="#aDjsGxjQI"
           id="use171"
           style="opacity:1;fill:#DBA72E;fill-opacity:1"
           x="0"
           y="0"
           width="100%"
           height="100%" />
        <g
           id="g175">
          <use
             xlink:href="#aDjsGxjQI"
             id="use173"
             style="opacity:1;fill-opacity:0;stroke:#DBA72E;stroke-width:1;stroke-opacity:1"
             x="0"
             y="0"
             width="100%"
             height="100%" />
        </g>
      </g>
      <g
         visibility="inherit"
         id="g185"
         style="visibility:inherit">
        <use
           xlink:href="#c8ytKmyG9"
           id="use179"
           style="opacity:1;fill:#DBA72E;fill-opacity:1"
           x="0"
           y="0"
           width="100%"
           height="100%" />
        <g
           id="g183">
          <use
             xlink:href="#c8ytKmyG9"
             id="use181"
             style="opacity:1;fill-opacity:0;stroke:#DBA72E;stroke-width:1;stroke-opacity:1"
             x="0"
             y="0"
             width="100%"
             height="100%" />
        </g>
      </g>
      <g
         visibility="inherit"
         id="g193"
         style="visibility:inherit">
        <use
           xlink:href="#a6ZV0vqYwX"
           id="use187"
           style="opacity:1;fill:#DBA72E;fill-opacity:1"
           x="0"
           y="0"
           width="100%"
           height="100%" />
        <g
           id="g191">
          <use
             xlink:href="#a6ZV0vqYwX"
             id="use189"
             style="opacity:1;fill-opacity:0;stroke:#DBA72E;stroke-width:1;stroke-opacity:1"
             x="0"
             y="0"
             width="100%"
             height="100%" />
        </g>
      </g>
      <g
         visibility="inherit"
         id="g201"
         style="visibility:inherit">
        <use
           xlink:href="#a5PcqSWdXc"
           id="use195"
           style="opacity:1;fill:#DBA72E;fill-opacity:1"
           x="0"
           y="0"
           width="100%"
           height="100%" />
        <g
           id="g199">
          <use
             xlink:href="#a5PcqSWdXc"
             id="use197"
             style="opacity:1;fill-opacity:0;stroke:#DBA72E;stroke-width:1;stroke-opacity:1"
             x="0"
             y="0"
             width="100%"
             height="100%" />
        </g>
      </g>
      <g
         visibility="inherit"
         id="g209"
         style="visibility:inherit">
        <use
           xlink:href="#f3ttg3mRX"
           id="use203"
           style="opacity:1;fill:#DBA72E;fill-opacity:1"
           x="0"
           y="0"
           width="100%"
           height="100%" />
        <g
           id="g207">
          <use
             xlink:href="#f3ttg3mRX"
             id="use205"
             style="opacity:1;fill-opacity:0;stroke:#DBA72E;stroke-width:1;stroke-opacity:1"
             x="0"
             y="0"
             width="100%"
             height="100%" />
        </g>
      </g>
      <g
         visibility="inherit"
         id="g217"
         style="visibility:inherit">
        <use
           xlink:href="#bjGYAixHq"
           id="use211"
           style="opacity:1;fill:#DBA72E;fill-opacity:1"
           x="0"
           y="0"
           width="100%"
           height="100%" />
        <g
           id="g215">
          <use
             xlink:href="#bjGYAixHq"
             id="use213"
             style="opacity:1;fill-opacity:0;stroke:#DBA72E;stroke-width:1;stroke-opacity:1"
             x="0"
             y="0"
             width="100%"
             height="100%" />
        </g>
      </g>
      <g
         visibility="inherit"
         id="g225"
         style="visibility:inherit">
        <use
           xlink:href="#bvB1SHIwp"
           id="use219"
           style="opacity:1;fill:#DBA72E;fill-opacity:1"
           x="0"
           y="0"
           width="100%"
           height="100%" />
        <g
           id="g223">
          <use
             xlink:href="#bvB1SHIwp"
             id="use221"
             style="opacity:1;fill-opacity:0;stroke:#DBA72E;stroke-width:1;stroke-opacity:1"
             x="0"
             y="0"
             width="100%"
             height="100%" />
        </g>
      </g>
      <g
         visibility="inherit"
         id="g233"
         style="visibility:inherit">
        <use
           xlink:href="#c51wYaR7bs"
           id="use227"
           style="opacity:1;fill:#DBA72E;fill-opacity:1"
           x="0"
           y="0"
           width="100%"
           height="100%" />
        <g
           id="g231">
          <use
             xlink:href="#c51wYaR7bs"
             id="use229"
             style="opacity:1;fill-opacity:0;stroke:#DBA72E;stroke-width:1;stroke-opacity:1"
             x="0"
             y="0"
             width="100%"
             height="100%" />
        </g>
      </g>
      <g
         visibility="inherit"
         id="g241"
         style="visibility:inherit">
        <use
           xlink:href="#b2bUhO0ivC"
           id="use235"
           style="opacity:1;fill:#DBA72E;fill-opacity:1"
           x="0"
           y="0"
           width="100%"
           height="100%" />
        <g
           id="g239">
          <use
             xlink:href="#b2bUhO0ivC"
             id="use237"
             style="opacity:1;fill-opacity:0;stroke:#DBA72E;stroke-width:1;stroke-opacity:1"
             x="0"
             y="0"
             width="100%"
             height="100%" />
        </g>
      </g>
      <g
         visibility="inherit"
         id="g249"
         style="visibility:inherit">
        <use
           xlink:href="#c7dE0Tfmz"
           id="use243"
           style="opacity:1;fill:#DBA72E;fill-opacity:1"
           x="0"
           y="0"
           width="100%"
           height="100%" />
        <g
           id="g247">
          <use
             xlink:href="#c7dE0Tfmz"
             id="use245"
             style="opacity:1;fill-opacity:0;stroke:#DBA72E;stroke-width:1;stroke-opacity:1"
             x="0"
             y="0"
             width="100%"
             height="100%" />
        </g>
      </g>
      <g
         visibility="inherit"
         id="g257"
         style="visibility:inherit">
        <use
           xlink:href="#bcWm8rQua"
           id="use251"
           style="opacity:1;fill:#DBA72E;fill-opacity:1"
           x="0"
           y="0"
           width="100%"
           height="100%" />
        <g
           id="g255">
          <use
             xlink:href="#bcWm8rQua"
             id="use253"
             style="opacity:1;fill-opacity:0;stroke:#DBA72E;stroke-width:1;stroke-opacity:1"
             x="0"
             y="0"
             width="100%"
             height="100%" />
        </g>
      </g>
      <g
         visibility="inherit"
         id="g265"
         style="visibility:inherit">
        <use
           xlink:href="#a2DpSSJfIr"
           id="use259"
           style="opacity:1;fill:#DBA72E;fill-opacity:1"
           x="0"
           y="0"
           width="100%"
           height="100%" />
        <g
           id="g263">
          <use
             xlink:href="#a2DpSSJfIr"
             id="use261"
             style="opacity:1;fill-opacity:0;stroke:#DBA72E;stroke-width:1;stroke-opacity:1"
             x="0"
             y="0"
             width="100%"
             height="100%" />
        </g>
      </g>
      <g
         visibility="inherit"
         id="g269"
         style="visibility:inherit">
        <use
           xlink:href="#b301nZJxs1"
           id="use267"
           style="opacity:1;fill:#DBA72E;fill-opacity:1"
           x="0"
           y="0"
           width="100%"
           height="100%" />
      </g>
      <g
         visibility="inherit"
         id="g277"
         style="visibility:inherit">
        <use
           xlink:href="#eUrRVtfWv"
           id="use271"
           style="opacity:1;fill:#DBA72E;fill-opacity:1"
           x="0"
           y="0"
           width="100%"
           height="100%" />
        <g
           id="g275">
          <use
             xlink:href="#eUrRVtfWv"
             id="use273"
             style="opacity:1;fill-opacity:0;stroke:#DBA72E;stroke-width:1;stroke-opacity:1"
             x="0"
             y="0"
             width="100%"
             height="100%" />
        </g>
      </g>
      <g
         visibility="inherit"
         id="g285"
         style="visibility:inherit">
        <use
           xlink:href="#bhNUbu1Fl"
           id="use279"
           style="opacity:1;fill:#DBA72E;fill-opacity:1"
           x="0"
           y="0"
           width="100%"
           height="100%" />
        <g
           id="g283">
          <use
             xlink:href="#bhNUbu1Fl"
             id="use281"
             style="opacity:1;fill-opacity:0;stroke:#DBA72E;stroke-width:1;stroke-opacity:1"
             x="0"
             y="0"
             width="100%"
             height="100%" />
        </g>
      </g>
      <g
         visibility="inherit"
         id="g293"
         style="visibility:inherit">
        <use
           xlink:href="#b2cLsioUhb"
           id="use287"
           style="opacity:1;fill:#DBA72E;fill-opacity:1"
           x="0"
           y="0"
           width="100%"
           height="100%" />
        <g
           id="g291">
          <use
             xlink:href="#b2cLsioUhb"
             id="use289"
             style="opacity:1;fill-opacity:0;stroke:#DBA72E;stroke-width:1;stroke-opacity:1"
             x="0"
             y="0"
             width="100%"
             height="100%" />
        </g>
      </g>
      <g
         visibility="inherit"
         id="g301"
         style="visibility:inherit">
        <use
           xlink:href="#cce8DYmab"
           id="use295"
           style="opacity:1;fill:#DBA72E;fill-opacity:1"
           x="0"
           y="0"
           width="100%"
           height="100%" />
        <g
           id="g299">
          <use
             xlink:href="#cce8DYmab"
             id="use297"
             style="opacity:1;fill-opacity:0;stroke:#DBA72E;stroke-width:1;stroke-opacity:1"
             x="0"
             y="0"
             width="100%"
             height="100%" />
        </g>
      </g>
      <g
         visibility="inherit"
         id="g309"
         style="visibility:inherit">
        <use
           xlink:href="#dKLmmQ7jy"
           id="use303"
           style="opacity:1;fill:#DBA72E;fill-opacity:1"
           x="0"
           y="0"
           width="100%"
           height="100%" />
        <g
           id="g307">
          <use
             xlink:href="#dKLmmQ7jy"
             id="use305"
             style="opacity:1;fill-opacity:0;stroke:#DBA72E;stroke-width:1;stroke-opacity:1"
             x="0"
             y="0"
             width="100%"
             height="100%" />
        </g>
      </g>
    </g>
  </g>
</svg>
